<?xml version="1.0" encoding="utf-8"?>
<svg version="1.1" xmlns:xlink="http://www.w3.org/1999/xlink" width="55px" height="55px" xmlns="http://www.w3.org/2000/svg">
  <g transform="matrix(1 0 0 1 -845 -3285 )">
    <path d="M 10 40  L 15 40  L 15 45  L 10 45  L 10 40  Z M 10 10  L 15 10  L 15 15  L 10 15  L 10 10  Z M 40 10  L 45 10  L 45 15  L 40 15  L 40 10  Z M 5 35  L 5 50  L 20 50  L 20 35  L 5 35  Z M 5 5  L 5 20  L 20 20  L 20 5  L 5 5  Z M 35 5  L 35 20  L 50 20  L 50 5  L 35 5  Z M 0 30  L 25 30  L 25 55  L 0 55  L 0 30  Z M 40 50  L 45 50  L 45 55  L 40 55  L 40 50  Z M 50 50  L 55 50  L 55 55  L 50 55  L 50 50  Z M 50 30  L 55 30  L 55 45  L 40 45  L 40 40  L 35 40  L 35 55  L 30 55  L 30 30  L 45 30  L 45 35  L 50 35  L 50 30  Z M 0 0  L 25 0  L 25 25  L 0 25  L 0 0  Z M 30 0  L 55 0  L 55 25  L 30 25  L 30 0  Z " fill-rule="nonzero" fill="#ffffff" stroke="none" transform="matrix(1 0 0 1 845 3285 )" />
  </g>
</svg>