<?xml version="1.0" encoding="utf-8"?>
<svg version="1.1" xmlns:xlink="http://www.w3.org/1999/xlink" width="10px" height="14px" xmlns="http://www.w3.org/2000/svg">
  <g transform="matrix(1 0 0 1 -127 -425 )">
    <path d="M 10 7  C 10 7.1505376344086  9.93886743886744 7.2808105872622  9.81660231660232 7.39081885856079  L 2.65444015444015 13.8349875930521  C 2.53217503217503 13.9449958643507  2.38738738738739 14  2.22007722007722 14  C 2.05276705276705 14  1.90797940797941 13.9449958643507  1.78571428571429 13.8349875930521  L 0.183397683397683 12.393300248139  C 0.0611325611325612 12.2832919768404  0 12.1530190239868  0 12.0024813895782  C 0 11.8519437551696  0.0611325611325612 11.721670802316  0.183397683397683 11.6116625310174  L 5.30888030888031 7  L 0.183397683397683 2.38833746898263  C 0.0611325611325612 2.27832919768403  0 2.14805624483044  0 1.99751861042184  C 0 1.84698097601323  0.0611325611325612 1.71670802315963  0.183397683397683 1.60669975186104  L 1.78571428571429 0.16501240694789  C 1.90797940797941 0.0550041356492963  2.05276705276705 0  2.22007722007722 0  C 2.38738738738739 0  2.53217503217503 0.0550041356492963  2.65444015444015 0.16501240694789  L 9.81660231660232 6.60918114143921  C 9.93886743886744 6.7191894127378  10 6.8494623655914  10 7  Z " fill-rule="nonzero" fill="#aaaaaa" stroke="none" transform="matrix(1 0 0 1 127 425 )" />
  </g>
</svg>